<svg width="19" height="22" viewBox="0 0 19 22" fill="none" xmlns="http://www.w3.org/2000/svg">
<path d="M18.0597 9C18.0597 16 9.02985 22 9.02985 22C9.02985 22 0 16 0 9C3.56863e-08 6.61305 0.951356 4.32387 2.64478 2.63604C4.33821 0.948211 6.63499 0 9.02985 0C11.4247 0 13.7215 0.948211 15.4149 2.63604C17.1083 4.32387 18.0597 6.61305 18.0597 9Z" fill="#292828"/>
<path d="M13.3378 4.7612L13.4856 8.47H13.2049C12.7714 7.15985 12.3872 6.26836 12.0523 5.79552C11.7174 5.31284 11.2347 5.0715 10.6043 5.0715H10.4269V14.7942H11.6829V15.1045H6.28963V14.7942H7.5456V5.0715H7.35351C6.72306 5.0715 6.23545 5.32269 5.89068 5.82508C5.5459 6.31761 5.16665 7.19926 4.75291 8.47H4.47217L4.61993 4.7612H13.3378Z" fill="white"/>
</svg>
