<svg width="20" height="20" viewBox="0 0 20 20" fill="none" xmlns="http://www.w3.org/2000/svg">
<path fill-rule="evenodd" clip-rule="evenodd" d="M15 0H5C2.23858 0 0 2.23858 0 5V15C0 17.7614 2.23858 20 5 20H15C17.7614 20 20 17.7614 20 15V5C20 2.23858 17.7614 0 15 0ZM10.4833 6.98918C9.85908 6.89662 9.22161 7.00324 8.66151 7.29386C8.10141 7.58449 7.64721 8.04432 7.36351 8.60796C7.07982 9.1716 6.98107 9.81034 7.08132 10.4333C7.18157 11.0563 7.47571 11.6319 7.9219 12.0781C8.36809 12.5242 8.94361 12.8184 9.56661 12.9186C10.1896 13.0189 10.8283 12.9201 11.392 12.6364C11.9556 12.3527 12.4155 11.8985 12.7061 11.3384C12.9967 10.7783 13.1033 10.1409 13.0108 9.51668C12.9164 8.87999 12.6197 8.29054 12.1645 7.83541C11.7094 7.38028 11.12 7.08359 10.4833 6.98918ZM7.74037 5.51861C8.67386 5.03424 9.73633 4.85655 10.7766 5.01081C11.8378 5.16817 12.8202 5.66264 13.5788 6.4212C14.3373 7.17975 14.8318 8.16216 14.9891 9.22331C15.1434 10.2636 14.9657 11.3261 14.4813 12.2596C13.997 13.1931 13.2306 13.9501 12.2912 14.4229C11.3518 14.8957 10.2872 15.0603 9.24887 14.8932C8.21054 14.7261 7.25134 14.2359 6.50768 13.4923C5.76403 12.7486 5.2738 11.7894 5.10672 10.7511C4.93964 9.71275 5.10422 8.64818 5.57704 7.70878C6.04987 6.76938 6.80687 6.00299 7.74037 5.51861ZM15.5 3.5C14.9477 3.5 14.5 3.94772 14.5 4.5C14.5 5.05228 14.9477 5.5 15.5 5.5H15.51C16.0623 5.5 16.51 5.05228 16.51 4.5C16.51 3.94772 16.0623 3.5 15.51 3.5H15.5Z" fill="#292828"/>
</svg>
