<svg width="20" height="16" viewBox="0 0 20 16" fill="none" xmlns="http://www.w3.org/2000/svg">
<path d="M0.08868 1.41219C0.0310556 1.59823 0 1.79567 0 2V14C0 15.1 0.9 16 2 16H18C19.1 16 20 15.1 20 14V2C20 1.79566 19.9689 1.59823 19.9113 1.41219C19.8466 1.5557 19.7469 1.68597 19.6139 1.78935L10.6139 8.78935C10.2528 9.07022 9.74717 9.07022 9.38606 8.78935L0.386059 1.78935C0.253136 1.68597 0.153441 1.5557 0.08868 1.41219Z" fill="#292828"/>
<path d="M18.5878 0.0886679C18.4017 0.0310503 18.2043 0 18 0H2C1.79568 0 1.59826 0.0310511 1.41223 0.0886675C1.48257 0.120553 1.5503 0.161151 1.61394 0.210648L10 6.73314L18.3861 0.210648C18.4497 0.161151 18.5174 0.120554 18.5878 0.0886679Z" fill="#292828"/>
</svg>
