<svg width="20" height="20" viewBox="0 0 20 20" fill="none" xmlns="http://www.w3.org/2000/svg">
<path d="M20.0001 14.92V17.92C20.0012 18.1985 19.9441 18.4741 19.8326 18.7293C19.721 18.9845 19.5574 19.2136 19.3521 19.4018C19.1469 19.5901 18.9046 19.7335 18.6408 19.8227C18.377 19.9119 18.0974 19.945 17.8201 19.92C14.7429 19.5856 11.7871 18.5341 9.19005 16.85C6.77388 15.3146 4.72539 13.2661 3.19006 10.85C1.50003 8.24118 0.448298 5.27097 0.120055 2.17997C0.0950657 1.90344 0.12793 1.62474 0.216556 1.3616C0.305181 1.09846 0.447626 0.856664 0.634821 0.651596C0.822016 0.446528 1.04986 0.282684 1.30385 0.170497C1.55783 0.0583095 1.8324 0.000236361 2.11006 -2.5118e-05H5.11006C5.59536 -0.00480156 6.06585 0.167053 6.43382 0.483508C6.80179 0.799962 7.04213 1.23942 7.11005 1.71997C7.23668 2.68004 7.47151 3.6227 7.81006 4.52997C7.9446 4.8879 7.97372 5.27689 7.89396 5.65086C7.81421 6.02482 7.62892 6.36809 7.36005 6.63998L6.09006 7.90997C7.51361 10.4135 9.58651 12.4864 12.0901 13.91L13.3601 12.64C13.6319 12.3711 13.9752 12.1858 14.3492 12.1061C14.7231 12.0263 15.1121 12.0554 15.4701 12.19C16.3773 12.5285 17.32 12.7634 18.2801 12.89C18.7658 12.9585 19.2095 13.2032 19.5266 13.5775C19.8437 13.9518 20.0122 14.4296 20.0001 14.92Z" fill="#292828"/>
</svg>
