<svg width="42" height="16" viewBox="0 0 42 16" fill="none" xmlns="http://www.w3.org/2000/svg">
<path fill-rule="evenodd" clip-rule="evenodd" d="M0 8.22266C4.82823e-08 7.67037 0.447715 7.22266 1 7.22266L40 7.22266C40.5523 7.22266 41 7.67038 41 8.22266C41 8.77494 40.5523 9.22266 40 9.22266L1 9.22266C0.447715 9.22266 -4.82823e-08 8.77494 0 8.22266Z" fill="#292828"/>
<path fill-rule="evenodd" clip-rule="evenodd" d="M32.4552 0.292893C32.8458 -0.0976311 33.4789 -0.0976311 33.8695 0.292893L40.8695 7.29289C41.26 7.68342 41.26 8.31658 40.8695 8.70711L33.8695 15.7071C33.4789 16.0976 32.8458 16.0976 32.4552 15.7071C32.0647 15.3166 32.0647 14.6834 32.4552 14.2929L38.7481 8L32.4552 1.70711C32.0647 1.31658 32.0647 0.683417 32.4552 0.292893Z" fill="#292828"/>
</svg>
