<svg width="20" height="22" viewBox="0 0 20 22" fill="none" xmlns="http://www.w3.org/2000/svg">
<path fill-rule="evenodd" clip-rule="evenodd" d="M2 5C2 4.44772 2.44772 4 3 4H17C17.5523 4 18 4.44772 18 5V8.99999H2V5ZM2 10.9703V19C2 19.5523 2.44772 20 3 20H17C17.5523 20 18 19.5523 18 19V10.9703C17.7058 10.9892 17.3643 11 17 11H3C2.63571 11 2.29417 10.9892 2 10.9703ZM3 2C1.34315 2 0 3.34315 0 5V19C0 20.6569 1.34315 22 3 22H17C18.6569 22 20 20.6569 20 19V5C20 3.34315 18.6569 2 17 2H3Z" fill="#292828"/>
<path fill-rule="evenodd" clip-rule="evenodd" d="M14 0C14.5523 0 15 0.447715 15 1V5C15 5.55228 14.5523 6 14 6C13.4477 6 13 5.55228 13 5V1C13 0.447715 13.4477 0 14 0Z" fill="#292828"/>
<path fill-rule="evenodd" clip-rule="evenodd" d="M6 0C6.55228 0 7 0.447715 7 1V5C7 5.55228 6.55228 6 6 6C5.44772 6 5 5.55228 5 5V1C5 0.447715 5.44772 0 6 0Z" fill="#292828"/>
</svg>
