<svg width="93" height="107" viewBox="0 0 93 107" fill="none" xmlns="http://www.w3.org/2000/svg">
<mask id="path-1-inside-1" fill="white">
<path fill-rule="evenodd" clip-rule="evenodd" d="M3.30969 44C1.50055 47.1701 0.460938 50.8771 0.460938 54.8384C0.460938 66.5254 9.51 75.9996 20.6726 75.9996C31.8352 75.9996 40.8842 66.5254 40.8842 54.8384C40.8842 50.8771 39.8446 47.1701 38.0355 44H3.30969Z"/>
</mask>
<path d="M3.30969 44V41H1.56761L0.704134 42.513L3.30969 44ZM38.0355 44L40.641 42.513L39.7775 41H38.0355V44ZM3.46094 54.8384C3.46094 51.4066 4.36064 48.211 5.91524 45.487L0.704134 42.513C-1.35955 46.1291 -2.53906 50.3477 -2.53906 54.8384H3.46094ZM20.6726 72.9996C11.2952 72.9996 3.46094 64.9999 3.46094 54.8384H-2.53906C-2.53906 68.051 7.72484 78.9996 20.6726 78.9996V72.9996ZM37.8842 54.8384C37.8842 64.9999 30.05 72.9996 20.6726 72.9996V78.9996C33.6203 78.9996 43.8842 68.051 43.8842 54.8384H37.8842ZM35.4299 45.487C36.9845 48.211 37.8842 51.4066 37.8842 54.8384H43.8842C43.8842 50.3477 42.7047 46.1291 40.641 42.513L35.4299 45.487ZM38.0355 41H3.30969V47H38.0355V41Z" fill="#292828" mask="url(#path-1-inside-1)"/>
<path fill-rule="evenodd" clip-rule="evenodd" d="M65.1371 0H84.3382V4H83.3282V24.771L87.4629 28.6286L92.4239 33.8357V102V105H89.4239H59.043H56.043V102V33.8357L61.5552 28.6286L66.1483 24.7718V4H65.1371V0ZM69.1483 4H80.3282V24.771V26.075L81.2816 26.9645L85.3518 30.7619L89.4239 35.036V67H59.043V35.1287L63.5516 30.8696L68.0774 27.0693L69.1483 26.1701V24.7718V4ZM59.043 84V102H89.4239V84H59.043Z" fill="#292828"/>
<path d="M20.7429 76V105M12 105H29" stroke="#292828" stroke-width="3"/>
</svg>
