<svg width="170" height="90" viewBox="0 0 170 90" fill="none" xmlns="http://www.w3.org/2000/svg">
<g clip-path="url(#clip0)">
<path d="M170 71.9229H1.30273V89.2781H170V71.9229Z" fill="black"/>
<path d="M0.705078 1.18555H14.4446V2.02338H10.3825V27.1585H11.8162C13.9667 27.1585 15.7588 26.4404 16.9536 25.1238C18.1483 23.8072 19.582 21.7724 20.8962 19.0195H21.7325L21.0157 27.9964H0.705078V27.1585H2.97509V2.02338H0.705078V1.18555V1.18555Z" fill="black"/>
<path d="M26.2721 25.842C24.5995 24.1663 23.7632 21.7725 23.7632 18.7802C23.7632 15.788 24.719 13.3941 26.5111 11.8382C28.3032 10.2822 30.6927 9.44434 33.5601 9.44434C39.2948 9.44434 42.1622 12.3169 41.9232 18.1818H31.1706V19.6181C31.1706 22.1316 31.529 24.0467 32.1264 25.2436C32.7237 26.4405 33.9185 27.1586 35.4716 27.1586C38.4585 27.1586 40.3701 25.6026 41.3259 22.371L42.0427 22.4907C41.5648 24.286 40.7285 25.7223 39.4143 26.7995C38.1001 27.8768 36.308 28.3555 33.6795 28.3555C30.3343 28.3555 27.9448 27.5177 26.2721 25.842ZM31.1706 17.344H35.1132V15.4289C35.1132 13.3941 34.9937 11.9578 34.7548 11.2397C34.5158 10.5216 34.038 10.1625 33.3211 10.1625C32.6043 10.1625 32.0069 10.5216 31.7679 11.3594C31.529 12.1972 31.29 13.5138 31.29 15.5486V17.344H31.1706Z" fill="black"/>
<path d="M44.4326 28.3555V21.5331H44.9105C45.6274 23.8073 46.4637 25.3633 47.5389 26.2011C48.6142 27.0389 50.0479 27.5177 51.7205 27.5177C54.349 27.5177 55.6632 26.6799 55.6632 25.0042C55.6632 24.286 55.3048 23.8073 54.7074 23.4482C53.7516 22.8497 52.4374 22.4907 50.8842 22.1316C49.0921 21.6528 47.6584 21.0544 46.5831 20.3362C45.1495 19.3787 44.4326 17.9424 44.4326 16.0274C44.4326 14.1123 45.03 12.4366 46.2247 11.2397C47.4195 10.0428 49.0921 9.44434 51.1232 9.44434C52.3179 9.44434 53.6321 9.68372 54.9463 10.2822C55.4242 10.5216 55.7827 10.6412 56.0216 10.6412C56.2606 10.6412 56.4995 10.5216 56.619 10.4019C56.7384 10.2822 56.9774 9.9231 57.2163 9.44434H57.6942V15.3092H57.2163C55.9021 11.9579 53.8711 10.2822 51.1232 10.2822C49.9284 10.2822 49.0921 10.5216 48.4947 10.8806C47.8974 11.3594 47.6584 11.8382 47.6584 12.4366C47.6584 12.7957 47.7779 13.1548 47.8974 13.3941C48.0168 13.6335 48.2558 13.7532 48.3753 13.8729C48.4947 13.9926 48.6142 14.1123 48.8532 14.232C49.0921 14.3517 49.3311 14.4714 49.4505 14.4714C49.57 14.5911 49.809 14.5911 50.1674 14.7107C50.5258 14.8304 50.7647 14.8304 50.8842 14.9501C52.6763 15.4289 53.8711 15.788 54.5879 16.0274C55.3048 16.2667 56.0216 16.7455 56.7384 17.2243C58.1721 18.1818 58.889 19.7378 58.889 21.8922C58.889 24.0467 58.2916 25.7223 56.9774 26.7996C55.6632 27.8768 53.9905 28.4752 51.7205 28.4752C50.1674 28.4752 48.6142 28.1162 47.1805 27.398C46.8221 27.1586 46.5832 27.0389 46.4637 27.0389C45.8663 27.0389 45.3884 27.5177 44.791 28.4752H44.4326V28.3555Z" fill="black"/>
<path d="M24.1221 36.0156L24.4805 45.5909H23.7637C22.6884 42.2396 21.7326 39.8457 20.8963 38.6488C20.06 37.4519 18.7458 36.7338 17.1926 36.7338H16.5953V61.9886H19.8211V62.8264H5.96207V61.9886H9.18787V36.8535H8.70997C7.03734 36.8535 5.84259 37.4519 4.8868 38.7685C4.05048 40.0851 2.97522 42.3593 1.89995 45.5909H1.18311L1.54153 36.0156H24.1221V36.0156Z" fill="black"/>
<path d="M38.937 45.5906C37.9812 45.5906 37.1449 46.189 36.4281 47.386C35.7112 48.5829 35.3528 50.0192 35.3528 51.6948V61.9883H38.1007V62.7064H26.1533V61.9883H28.3039V45.2315H26.1533V44.6331H35.3528V48.2238C35.7112 46.9072 36.3086 45.9497 37.2644 45.2315C38.2202 44.5134 39.2955 44.1543 40.4902 44.1543C41.6849 44.1543 42.6407 44.5134 43.3576 45.1118C44.0744 45.83 44.4328 46.7875 44.4328 47.9844C44.4328 49.1813 44.1939 50.1389 43.5965 50.857C42.9992 51.5752 42.1628 51.8145 40.9681 51.8145C39.7734 51.8145 38.937 51.4555 38.4591 50.6176C37.8618 49.8995 37.8618 48.8223 38.2202 47.386H39.6539C40.3707 46.3087 40.1318 45.5906 38.937 45.5906Z" fill="black"/>
<path d="M48.1359 60.6723C46.4633 58.9966 45.627 56.6028 45.627 53.6105C45.627 50.6182 46.5827 48.2244 48.3749 46.6684C50.167 45.1124 52.5564 44.2746 55.4238 44.2746C61.1586 44.2746 64.0259 47.1472 63.787 53.012H53.0343V54.4483C53.0343 56.9618 53.3928 58.8769 53.9901 60.0738C54.5875 61.3904 55.7822 61.9889 57.3354 61.9889C60.3222 61.9889 62.2338 60.4329 63.1896 57.2012L63.9065 57.3209C63.4286 59.1163 62.5923 60.5526 61.278 61.6298C59.9638 62.707 58.1717 63.1858 55.5433 63.1858C52.198 63.1858 49.8085 62.3479 48.1359 60.6723ZM52.6759 41.8807L55.0654 34.5796L56.8575 34.2205C57.6938 34.1008 58.2912 34.1008 58.6496 34.4599C59.1275 34.819 59.247 35.2977 59.247 35.8962C59.247 36.4946 58.8886 37.2128 58.1717 37.8112L53.0343 42.1201L52.6759 41.8807ZM56.977 52.1742V50.2591C56.977 48.2244 56.8575 46.7881 56.6186 46.0699C56.3796 45.3518 55.9017 44.9927 55.1849 44.9927C54.468 44.9927 53.8707 45.3518 53.6317 46.1896C53.3928 47.0275 53.1538 48.3441 53.1538 50.3788V52.2939H56.977V52.1742Z" fill="black"/>
<path d="M67.7296 57.3206V45.2318H65.5791V44.6334H67.7296V39.726L74.8981 37.9307V44.6334H79.916V45.3515H74.8981V58.2782C74.8981 59.4751 75.0176 60.3129 75.2565 60.9114C75.4954 61.5098 75.9733 61.7492 76.8097 61.7492C77.5265 61.7492 78.2434 61.3901 78.8407 60.5523C79.4381 59.8341 79.7965 58.7569 79.916 57.4403L80.5134 57.56C80.2744 59.3554 79.7965 60.672 78.8407 61.7492C77.8849 62.8264 76.4512 63.3052 74.3007 63.3052C72.1502 63.3052 70.597 62.8264 69.4023 61.9886C68.2075 61.031 67.7296 59.5947 67.7296 57.3206Z" fill="black"/>
<path d="M84.0978 60.6721C82.4252 58.9964 81.5889 56.6026 81.5889 53.6103C81.5889 50.618 82.5447 48.2242 84.3368 46.6682C86.1289 45.1123 88.5184 44.2744 91.3857 44.2744C97.1205 44.2744 99.9879 47.147 99.7489 53.0119H88.9963V54.4482C88.9963 56.9617 89.3547 58.8767 89.952 60.0736C90.5494 61.3902 91.7442 61.9887 93.2973 61.9887C96.2842 61.9887 98.1958 60.4327 99.1515 57.2011L99.8684 57.3207C99.3905 59.1161 98.5542 60.5524 97.24 61.6296C95.9257 62.7068 94.1336 63.1856 91.5052 63.1856C88.1599 63.1856 85.651 62.3478 84.0978 60.6721ZM88.9963 52.174H92.9389V50.259C92.9389 48.2242 92.8194 46.7879 92.5805 46.0698C92.3415 45.3516 91.8636 44.9926 91.1468 44.9926C90.4299 44.9926 89.8326 45.3516 89.5936 46.1895C89.3547 47.0273 89.1157 48.3439 89.1157 50.3787V52.174H88.9963Z" fill="black"/>
<path d="M110.861 53.8493H111.936V50.857C111.936 48.4632 111.816 46.7875 111.577 45.9497C111.338 45.1118 110.741 44.7528 110.024 44.7528C109.546 44.7528 109.188 44.8724 108.83 45.1118C108.471 45.3512 108.232 45.7103 108.232 46.0694C108.232 46.4284 108.352 46.9072 108.471 47.386H109.427C109.666 47.8647 109.785 48.5829 109.785 49.301C109.785 50.0192 109.427 50.7373 108.83 51.2161C108.232 51.8145 107.396 52.0539 106.44 52.0539C104.29 52.0539 103.095 50.9767 103.095 48.8223C103.095 45.7103 105.723 44.1543 111.1 44.1543C114.086 44.1543 116.237 44.6331 117.432 45.7103C118.626 46.7875 119.224 48.5829 119.224 51.4555V59.2354C119.224 60.552 119.582 61.2701 120.299 61.2701C121.135 61.2701 121.733 59.9535 121.852 57.3203H122.45C122.33 59.5945 121.972 61.1504 121.135 61.9883C120.419 62.8261 119.224 63.3049 117.551 63.3049C114.445 63.3049 112.772 62.3474 112.294 60.4323C111.936 61.3898 111.458 62.108 110.861 62.5867C110.263 63.0655 109.188 63.3049 107.993 63.3049C104.17 63.3049 102.378 61.7489 102.378 58.6369C102.378 56.8416 103.095 55.525 104.528 54.9265C105.723 54.0887 107.874 53.8493 110.861 53.8493ZM109.546 61.0308C109.666 61.3898 109.905 61.6292 110.383 61.6292C110.741 61.6292 111.1 61.2701 111.458 60.6717C111.816 60.0732 111.936 59.1157 111.936 57.9188V54.328H111.697C110.144 54.328 109.307 55.525 109.307 57.7991V58.3976C109.307 59.8338 109.427 60.6717 109.546 61.0308Z" fill="black"/>
<path d="M145.268 62.8263H136.547L136.069 60.0735C135.711 61.1507 135.113 61.8688 134.277 62.4673C133.441 63.0657 132.246 63.3051 130.693 63.3051C126.75 63.3051 124.719 61.1507 124.719 56.9615V45.4711H122.568V44.6333H131.768V57.7993C131.768 59.3553 131.887 60.3128 132.126 60.7916C132.365 61.2704 132.724 61.5097 133.441 61.5097C134.157 61.5097 134.635 61.1507 135.233 60.3128C135.711 59.475 135.949 58.3978 135.949 56.9615V45.2318H134.157V44.6333H142.998V62.2279H145.149V62.8263H145.268Z" fill="black"/>
<path d="M160.203 51.4557L164.743 45.2318H161.995V44.6333H167.73V45.3514H165.699L160.681 52.4132L166.894 62.2279H168.925V62.946H156.141V62.2279H158.889L154.707 55.2858L150.406 62.2279H152.915V62.946H146.941V62.2279H149.45L154.349 54.5677L148.495 45.3514H146.225V44.6333H159.128V45.3514H156.499L160.203 51.4557Z" fill="black"/>
<path d="M11.4574 83.0538C11.5769 83.0538 11.5769 83.0538 11.6964 83.1735L12.2937 83.772C11.9353 84.1311 11.5769 84.4901 11.099 84.7295C10.6211 84.9689 10.1432 85.0886 9.42635 85.0886C8.82898 85.0886 8.35109 84.9689 7.87319 84.8492C7.3953 84.6098 7.03687 84.3704 6.67845 84.0114C6.32003 83.6523 6.08108 83.2932 5.96161 82.6948C5.84213 82.0963 5.72266 81.6175 5.72266 81.1388C5.72266 80.5403 5.84213 80.0616 5.96161 79.5828C6.20055 79.104 6.4395 78.6253 6.79792 78.2662C7.15635 77.9071 7.51477 77.6677 8.11214 77.4284C8.59003 77.189 9.1874 77.189 9.78478 77.189C10.3821 77.189 10.86 77.3087 11.3379 77.4284C11.8158 77.6677 12.1743 77.9071 12.4132 78.1465L11.8158 78.745L11.6964 78.8646C11.6964 78.8646 11.5769 78.8646 11.4574 78.8646C11.3379 78.8646 11.3379 78.8646 11.2185 78.745C11.099 78.6253 10.9795 78.6253 10.86 78.5056C10.7406 78.3859 10.5016 78.3859 10.3821 78.2662C10.1432 78.1465 9.90425 78.1465 9.6653 78.1465C9.30688 78.1465 8.94846 78.2662 8.70951 78.3859C8.35109 78.5056 8.11214 78.745 7.87319 78.9843C7.63424 79.2237 7.51477 79.4631 7.39529 79.8222C7.27582 80.1813 7.15635 80.5403 7.15635 81.0191C7.15635 81.4979 7.27582 81.8569 7.39529 82.216C7.51477 82.5751 7.63424 82.8145 7.87319 83.0538C8.11214 83.2932 8.35109 83.4129 8.59003 83.5326C8.82898 83.6523 9.1874 83.772 9.54583 83.772C9.78477 83.772 9.90425 83.772 10.0237 83.772C10.1432 83.772 10.3821 83.772 10.5016 83.6523C10.6211 83.5326 10.7406 83.5326 10.86 83.4129C10.9795 83.2932 11.099 83.2932 11.2185 83.1735C11.2185 83.1735 11.3379 83.1735 11.3379 83.0538C11.4574 83.0538 11.4574 83.0538 11.4574 83.0538Z" fill="white"/>
<path d="M19.8208 77.0693V78.2662H16.3561V80.4207H19.104V81.4979H16.3561V83.6523H19.8208V84.8493H14.9224V77.0693H19.8208Z" fill="white"/>
<path d="M23.6438 77.0693C23.7633 77.0693 23.8827 77.189 23.8827 77.189L24.0022 77.3087L28.0643 82.5751C28.0643 82.4554 28.0643 82.3357 28.0643 82.216C28.0643 82.0964 28.0643 81.9767 28.0643 81.857V77.0693H29.3785V84.8492H28.5422C28.4228 84.8492 28.3033 84.8492 28.3033 84.8492C28.1838 84.8492 28.1838 84.7295 28.0643 84.6099L24.0022 79.4632C24.0022 79.5828 24.0022 79.7025 24.0022 79.8222C24.0022 79.9419 24.0022 80.0616 24.0022 80.1813V84.9689H22.688V77.189H23.4048C23.5243 77.0693 23.5243 77.0693 23.6438 77.0693Z" fill="white"/>
<path d="M37.8616 77.0693V78.2662H35.4721V84.8493H34.0384V78.2662H31.6489V77.0693H37.8616Z" fill="white"/>
<path d="M41.9234 81.857V84.8493H40.4897V77.0693H42.8792C43.3571 77.0693 43.835 77.0693 44.1934 77.189C44.5519 77.3087 44.9103 77.4284 45.1492 77.6678C45.3882 77.9072 45.6271 78.1466 45.6271 78.3859C45.6271 78.6253 45.7466 78.9844 45.7466 79.3435C45.7466 79.5828 45.7466 79.8222 45.6271 80.0616C45.5077 80.301 45.3882 80.5404 45.2687 80.6601C45.1492 80.8994 44.9103 81.0191 44.6713 81.1388C44.4324 81.2585 44.1934 81.3782 43.9545 81.4979C44.1934 81.6176 44.3129 81.7373 44.4324 81.9767L46.344 84.8493H45.0298C44.9103 84.8493 44.7908 84.8493 44.6713 84.7296C44.5519 84.7296 44.5519 84.6099 44.4324 84.4902L42.7598 81.9767C42.6403 81.857 42.6403 81.857 42.5208 81.7373C42.4013 81.6176 42.2819 81.7373 42.1624 81.7373H41.9234V81.857ZM41.9234 80.7798H42.8792C43.1182 80.7798 43.3571 80.7798 43.5961 80.6601C43.835 80.5404 43.9545 80.5404 44.074 80.4207C44.1934 80.301 44.3129 80.1813 44.3129 79.9419C44.4324 79.8222 44.4324 79.5828 44.4324 79.3435C44.4324 78.9844 44.3129 78.6253 44.074 78.3859C43.835 78.1466 43.4766 78.0269 42.8792 78.0269H41.9234V80.7798V80.7798Z" fill="white"/>
<path d="M53.8706 77.0693V78.2662H50.4059V80.4207H53.1538V81.4979H50.4059V83.6523H53.8706V84.8493H48.9722V77.0693H53.8706Z" fill="white"/>
<path d="M65.6986 83.0538C65.8181 83.0538 65.8181 83.0538 65.9376 83.1735L66.5349 83.772C66.1765 84.1311 65.8181 84.4901 65.3402 84.7295C64.8623 84.9689 64.3844 85.0886 63.6676 85.0886C63.0702 85.0886 62.5923 84.9689 62.1144 84.8492C61.6365 84.6098 61.2781 84.3704 60.9197 84.0114C60.5612 83.6523 60.3223 83.2932 60.2028 82.6948C60.0833 82.0963 59.9639 81.6175 59.9639 81.1388C59.9639 80.5403 60.0833 80.0616 60.2028 79.5828C60.4418 79.104 60.6807 78.6253 61.0391 78.2662C61.3975 77.9071 61.756 77.6677 62.3534 77.4284C62.8312 77.189 63.4286 77.189 64.026 77.189C64.6234 77.189 65.1013 77.3087 65.5791 77.4284C66.057 77.6677 66.4155 77.9071 66.6544 78.1465L66.1765 78.8646L66.057 78.9843C66.057 78.9843 65.9376 78.9843 65.8181 78.9843C65.6986 78.9843 65.6986 78.9843 65.5791 78.8646C65.4597 78.745 65.3402 78.745 65.2207 78.6253C65.1012 78.5056 64.8623 78.5056 64.7428 78.3859C64.5039 78.2662 64.2649 78.2662 64.026 78.2662C63.6676 78.2662 63.3091 78.3859 63.0702 78.5056C62.7118 78.6253 62.4728 78.8646 62.2339 79.104C61.9949 79.3434 61.8755 79.5828 61.756 79.9419C61.6365 80.3009 61.517 80.66 61.517 81.1388C61.517 81.6175 61.6365 81.9766 61.756 82.3357C61.8755 82.6948 61.9949 82.9341 62.2339 83.1735C62.4728 83.4129 62.7118 83.5326 62.9507 83.6523C63.1897 83.772 63.5481 83.8917 63.9065 83.8917C64.1455 83.8917 64.2649 83.8917 64.3844 83.8917C64.5039 83.8917 64.7428 83.8917 64.8623 83.772C64.9818 83.6523 65.1012 83.6523 65.2207 83.5326C65.3402 83.4129 65.4597 83.4129 65.5791 83.2932C65.5791 83.2932 65.6986 83.2932 65.6986 83.1735C65.6986 83.0538 65.6986 83.0538 65.6986 83.0538Z" fill="white"/>
<path d="M72.2699 83.6523C72.5088 83.6523 72.7478 83.6523 72.9867 83.5326C73.2257 83.4129 73.3452 83.2932 73.5841 83.1736C73.7036 83.0539 73.8231 82.8145 73.9425 82.5751C74.062 82.3357 74.062 82.0963 74.062 81.7373V77.0693H75.4957V81.7373C75.4957 82.216 75.3762 82.5751 75.2568 83.0539C75.1373 83.4129 74.8983 83.772 74.6594 84.1311C74.4204 84.3705 74.062 84.6098 73.5841 84.8492C73.2257 84.9689 72.7478 85.0886 72.2699 85.0886C71.792 85.0886 71.3141 84.9689 70.9557 84.8492C70.5973 84.7295 70.2388 84.4902 69.9999 84.1311C69.7609 83.8917 69.522 83.5326 69.4025 83.0539C69.283 82.6948 69.1636 82.216 69.1636 81.7373V77.0693H70.5973V81.7373C70.5973 81.9767 70.5973 82.3357 70.7167 82.5751C70.8362 82.8145 70.9557 83.0539 71.0752 83.1736C71.1946 83.2932 71.4336 83.5326 71.6725 83.5326C71.9115 83.5326 72.031 83.6523 72.2699 83.6523Z" fill="white"/>
<path d="M80.0357 83.6523H83.1421V84.8493H78.6021V77.0693H80.0357V83.6523Z" fill="white"/>
<path d="M90.3108 77.0693V78.2662H87.9213V84.8493H86.4876V78.2662H84.0981V77.0693H90.3108Z" fill="white"/>
<path d="M95.9252 83.6523C96.1641 83.6523 96.4031 83.6523 96.642 83.5326C96.881 83.4129 97.0004 83.2932 97.2394 83.1736C97.3588 83.0539 97.4783 82.8145 97.5978 82.5751C97.7173 82.3357 97.7173 82.0963 97.7173 81.7373V77.0693H99.151V81.7373C99.151 82.216 99.0315 82.5751 98.912 83.0539C98.7925 83.4129 98.5536 83.772 98.3146 84.1311C98.0757 84.3705 97.7173 84.6098 97.2394 84.8492C96.881 84.9689 96.4031 85.0886 95.9252 85.0886C95.4473 85.0886 94.9694 84.9689 94.611 84.8492C94.2525 84.7295 93.8941 84.4902 93.6552 84.1311C93.4162 83.8917 93.1773 83.5326 93.0578 83.0539C92.9383 82.6948 92.8188 82.216 92.8188 81.7373V77.0693H94.2525V81.7373C94.2525 81.9767 94.2525 82.3357 94.372 82.5751C94.4915 82.8145 94.611 83.0539 94.7304 83.1736C94.8499 83.2932 95.0888 83.5326 95.3278 83.5326C95.5667 83.5326 95.5667 83.6523 95.9252 83.6523Z" fill="white"/>
<path d="M103.691 81.857V84.8493H102.258V77.0693H104.647C105.125 77.0693 105.603 77.0693 105.961 77.189C106.32 77.3087 106.678 77.4284 106.917 77.6678C107.156 77.9072 107.395 78.1466 107.395 78.3859C107.395 78.6253 107.515 78.9844 107.515 79.3435C107.515 79.5828 107.515 79.8222 107.395 80.0616C107.276 80.301 107.156 80.5404 107.037 80.6601C106.917 80.8994 106.678 81.0191 106.439 81.1388C106.2 81.2585 105.961 81.3782 105.723 81.4979C105.961 81.6176 106.081 81.7373 106.2 81.9767L108.112 84.8493H106.798C106.678 84.8493 106.559 84.8493 106.439 84.7296C106.32 84.7296 106.32 84.6099 106.2 84.4902L104.528 81.9767C104.408 81.857 104.408 81.857 104.289 81.7373C104.169 81.6176 104.05 81.7373 103.93 81.7373H103.691V81.857ZM103.691 80.7798H104.647C104.886 80.7798 105.125 80.7798 105.364 80.6601C105.603 80.5404 105.723 80.5404 105.842 80.4207C105.961 80.301 106.081 80.1813 106.081 79.9419C106.2 79.8222 106.2 79.5828 106.2 79.3435C106.2 78.9844 106.081 78.6253 105.842 78.3859C105.603 78.1466 105.245 78.0269 104.647 78.0269H103.691V80.7798Z" fill="white"/>
<path d="M115.639 77.0693V78.2662H112.174V80.4207H114.922V81.4979H112.174V83.6523H115.639V84.8493H110.74V77.0693H115.639Z" fill="white"/>
<path d="M119.94 83.6523H123.046V84.8493H118.506V77.0693H119.94V83.6523Z" fill="white"/>
<path d="M129.02 81.019H131.768V82.0963H129.02V81.019Z" fill="white"/>
<path d="M137.622 77.0693H138.817C138.936 77.0693 139.056 77.0693 139.175 77.189C139.295 77.3087 139.295 77.3087 139.295 77.4284L141.087 82.2161C141.206 82.3357 141.206 82.5751 141.206 82.6948C141.206 82.9342 141.326 83.0539 141.326 83.2933C141.445 82.9342 141.565 82.5751 141.684 82.2161L143.476 77.4284C143.476 77.3087 143.596 77.3087 143.596 77.189C143.715 77.0693 143.835 77.0693 143.954 77.0693H145.149L142.043 84.8493H140.848L137.622 77.0693Z" fill="white"/>
<path d="M149.211 84.8493H147.777V77.0693H149.211V84.8493Z" fill="white"/>
<path d="M156.738 78.5053C156.738 78.625 156.618 78.625 156.618 78.625C156.618 78.625 156.499 78.625 156.379 78.625C156.26 78.625 156.26 78.625 156.14 78.5053C156.021 78.5053 155.901 78.3856 155.782 78.2659C155.663 78.1462 155.543 78.1462 155.304 78.0265C155.185 78.0265 154.946 77.9068 154.707 77.9068C154.468 77.9068 154.348 77.9068 154.229 78.0265C154.109 78.0265 153.99 78.1462 153.87 78.2659C153.751 78.3856 153.751 78.5053 153.631 78.625C153.512 78.7447 153.512 78.8643 153.512 78.984C153.512 79.2234 153.512 79.3431 153.631 79.4628C153.751 79.5825 153.87 79.7022 153.99 79.8219C154.109 79.9416 154.348 79.9416 154.587 80.0613C154.826 80.1809 155.065 80.181 155.304 80.3006C155.543 80.4203 155.782 80.4203 156.021 80.54C156.26 80.6597 156.379 80.7794 156.618 80.8991C156.738 81.0188 156.977 81.2582 156.977 81.4976C157.096 81.7369 157.096 81.9763 157.096 82.3354C157.096 82.6945 156.977 83.0535 156.857 83.2929C156.738 83.652 156.618 83.8914 156.379 84.1308C156.14 84.3702 155.901 84.4898 155.543 84.7292C155.185 84.8489 154.826 84.9686 154.348 84.9686C154.109 84.9686 153.87 84.9686 153.631 84.8489C153.393 84.8489 153.154 84.7292 152.915 84.6095C152.676 84.4898 152.437 84.3701 152.317 84.2505C152.078 84.1308 151.959 84.0111 151.839 83.7717L152.317 83.0535L152.437 82.9339C152.437 82.9339 152.556 82.9339 152.676 82.9339C152.795 82.9339 152.915 82.9339 152.915 83.0535C152.915 83.1732 153.154 83.1732 153.273 83.2929C153.393 83.4126 153.631 83.4126 153.751 83.5323C153.99 83.652 154.229 83.652 154.468 83.652C154.826 83.652 155.185 83.5323 155.424 83.4126C155.663 83.1732 155.782 82.9338 155.782 82.5748C155.782 82.3354 155.782 82.2157 155.662 82.096C155.543 81.9763 155.424 81.8566 155.304 81.7369C155.185 81.6172 154.946 81.6173 154.707 81.4976C154.468 81.3779 154.229 81.3779 154.109 81.2582C153.87 81.1385 153.631 81.1385 153.512 81.0188C153.273 80.8991 153.154 80.7794 152.915 80.6597C152.795 80.54 152.556 80.3006 152.556 80.0613C152.437 79.8219 152.437 79.4628 152.437 79.1037C152.437 78.8643 152.437 78.5053 152.556 78.2659C152.676 78.0265 152.795 77.7871 153.034 77.5477C153.273 77.3084 153.512 77.1887 153.87 77.069C154.229 76.9493 154.587 76.8296 154.946 76.8296C155.424 76.8296 155.782 76.9493 156.26 77.069C156.618 77.1887 156.977 77.428 157.216 77.6674L156.738 78.5053Z" fill="white"/>
<path d="M164.862 77.0693V78.2662H161.398V80.4206H164.145V81.4979H161.398V83.6523H164.862V84.8492H159.964V77.0693H164.862ZM164.504 75.2739L162.951 76.4708C162.951 76.4708 162.831 76.4708 162.831 76.5905H162.712H162.592H162.473H161.398L162.473 75.5133L162.592 75.3936C162.592 75.3936 162.712 75.3936 162.712 75.2739H162.831C162.831 75.2739 162.951 75.2739 163.07 75.2739H164.504Z" fill="white"/>
</g>
<defs>
<clipPath id="clip0">
<rect width="170" height="90" fill="white"/>
</clipPath>
</defs>
</svg>
