<svg width="55" height="67" viewBox="0 0 55 67" fill="none" xmlns="http://www.w3.org/2000/svg">
<path d="M55 27.4091C55 48.7273 27.5 67 27.5 67C27.5 67 0 48.7273 0 27.4091C1.08681e-07 20.1397 2.89731 13.1681 8.05456 8.02794C13.2118 2.88773 20.2065 0 27.5 0C34.7935 0 41.7882 2.88773 46.9454 8.02794C52.1027 13.1681 55 20.1397 55 27.4091Z" fill="#292828"/>
<path d="M40.6201 14.5L41.0701 25.795H40.2151C38.8951 21.805 37.7251 19.09 36.7051 17.65C35.6851 16.18 34.2151 15.445 32.2951 15.445H31.7551V45.055H35.5801V46H19.1551V45.055H22.9801V15.445H22.3951C20.4751 15.445 18.9901 16.21 17.9401 17.74C16.8901 19.24 15.7351 21.925 14.4751 25.795H13.6201L14.0701 14.5H40.6201Z" fill="white"/>
</svg>
