<svg width="106" height="64" viewBox="0 0 106 64" fill="none" xmlns="http://www.w3.org/2000/svg">
<path fill-rule="evenodd" clip-rule="evenodd" d="M63.0962 12.5C63.0962 17.5584 59.0883 21.7274 54.0012 21.9872V22H51.4931V28.8487C51.3516 28.9059 51.2127 28.9716 51.077 29.0456L2.16262 55.7388C-1.47464 57.7237 -0.0648843 63.25 4.07872 63.25H101.907C106.051 63.25 107.461 57.7237 103.824 55.7388L54.9092 29.0456C54.7735 28.9716 54.6345 28.9059 54.4931 28.8487V24.9615C60.9858 24.4577 66.0962 19.071 66.0962 12.5C66.0962 5.59644 60.4554 0 53.497 0C46.5387 0 40.8978 5.59644 40.8978 12.5C40.8978 12.6675 40.9012 12.8341 40.9077 13H43.9109C43.9022 12.8344 43.8978 12.6677 43.8978 12.5C43.8978 7.27561 48.1731 3 53.497 3C58.8209 3 63.0962 7.27561 63.0962 12.5ZM102.386 58.3722L53.4721 31.679C53.1735 31.5161 52.8126 31.5161 52.514 31.679L3.5997 58.3722C3.30601 58.5325 3.19174 58.7083 3.13544 58.851C3.06819 59.0214 3.04681 59.2504 3.10975 59.4972C3.1727 59.7439 3.30119 59.9347 3.44186 60.0521C3.55961 60.1504 3.74415 60.25 4.07872 60.25H101.907C102.242 60.25 102.427 60.1504 102.544 60.0521C102.685 59.9347 102.813 59.7439 102.876 59.4972C102.939 59.2504 102.918 59.0214 102.851 58.851C102.794 58.7083 102.68 58.5325 102.386 58.3722Z" fill="#292828"/>
</svg>
